<svg width="200" height="152" viewBox="0 0 200 152" fill="none" xmlns="http://www.w3.org/2000/svg">
<g clip-path="url(#clip0_584_25)">
<path d="M200 53.0459L179.547 137.766C178.716 137.843 177.549 138.078 177.166 137.214L165.964 107.279L137.488 152.003L124.045 99.4732L100.151 140.284L75.2119 99.117L62.4711 152.006L34.3444 107.287L22.7761 137.208C22.465 138.009 21.4962 137.879 20.7503 137.774L0 53.3248L1.94044 52.64L33.9866 104.435L51.5056 57.2319L75.2037 96.2702L98.3568 0.748292L98.5385 0H101.153L101.335 0.748292L124.741 95.9195L148.439 57.2319L165.958 104.435C168.314 100.801 170.847 97.2145 173.15 93.5476C180.634 81.6301 187.54 69.2709 195.214 57.4722C195.772 56.6051 197.9 53.115 198.459 52.6069L199.997 53.0432L200 53.0459Z" fill="#FFD4F2"/>
</g>
<defs>
<clipPath id="clip0_584_25">
<rect width="200" height="152" fill="white"/>
</clipPath>
</defs>
</svg>
